<svg xmlns="http://www.w3.org/2000/svg" width="20.002" height="20" viewBox="0 0 20.002 20"><rect width="20" height="20" fill="none"/><path d="M-2336,21714a9.929,9.929,0,0,1-7.064-2.937A9.932,9.932,0,0,1-2346,21704a9.924,9.924,0,0,1,2.936-7.061A9.929,9.929,0,0,1-2336,21694a9.93,9.93,0,0,1,7.062,2.939A9.927,9.927,0,0,1-2326,21704a9.928,9.928,0,0,1-2.938,7.063A9.929,9.929,0,0,1-2336,21714Zm-4-11a1,1,0,0,0-1,1,1,1,0,0,0,1,1h3v3a1,1,0,0,0,1,1,1,1,0,0,0,1-1v-3h3a1,1,0,0,0,1-1,1,1,0,0,0-1-1h-3v-3a1,1,0,0,0-1-1,1,1,0,0,0-1,1v3Z" transform="translate(2346 -21694)" fill="#a1c900"/></svg>