<svg xmlns="http://www.w3.org/2000/svg" width="24.043" height="29.487" viewBox="0 0 24.043 29.487"><path d="M44.676,12.1a6.661,6.661,0,0,0-3.254,5.659,6.662,6.662,0,0,0,4.006,5.92,15.9,15.9,0,0,1-2.077,4.2c-1.194,1.817-2.518,3.648-4.53,3.648-1.914,0-2.6-1.211-4.809-1.211-2.371,0-3.042,1.211-4.858,1.211-2.012,0-3.435-1.93-4.693-3.729a18.379,18.379,0,0,1-3.074-9.6,10.119,10.119,0,0,1,1.243-5.3,7.392,7.392,0,0,1,6.116-3.729c1.93-.065,3.647,1.325,4.825,1.325,1.129,0,3.238-1.325,5.626-1.325A6.559,6.559,0,0,1,44.676,12.1ZM33.408,8.8A5.824,5.824,0,0,1,34.9,4.265a6.278,6.278,0,0,1,4.448-2.224,6.4,6.4,0,0,1-1.635,4.628,5.025,5.025,0,0,1-4.3,2.126Z" transform="translate(-21.386 -2.041)" fill="#fff"/></svg>