<svg xmlns="http://www.w3.org/2000/svg" width="26.399" height="26.419" viewBox="0 0 26.399 26.419"><path d="M32.8,17.919l-3.392-.555a9.729,9.729,0,0,0-.81-1.956l1.98-2.824a.575.575,0,0,0-.064-.736L28.287,9.616a.573.573,0,0,0-.741-.06l-2.78,2a9.623,9.623,0,0,0-1.97-.82L22.2,7.355a.575.575,0,0,0-.565-.476H18.483a.574.574,0,0,0-.566.482l-.549,3.362a9.665,9.665,0,0,0-1.973.811L12.623,9.553a.574.574,0,0,0-.74.061L9.652,11.847a.574.574,0,0,0-.064.735l1.951,2.793a9.731,9.731,0,0,0-.825,1.987l-3.347.558a.574.574,0,0,0-.48.566v3.159a.575.575,0,0,0,.474.566l3.347.594a9.683,9.683,0,0,0,.825,1.987L9.557,27.556a.576.576,0,0,0,.061.74l2.232,2.235a.574.574,0,0,0,.735.064l2.8-1.959a9.68,9.68,0,0,0,1.977.818l.56,3.366a.572.572,0,0,0,.565.479h3.157a.573.573,0,0,0,.565-.474l.6-3.383a9.648,9.648,0,0,0,1.969-.824l2.815,1.976a.573.573,0,0,0,.736-.064L30.555,28.3a.575.575,0,0,0,.06-.742l-2.008-2.79a9.618,9.618,0,0,0,.808-1.957l3.4-.6a.574.574,0,0,0,.475-.566V18.486a.573.573,0,0,0-.481-.567ZM20.086,24.11A4.02,4.02,0,1,1,24.1,20.09,4.019,4.019,0,0,1,20.086,24.11Z" transform="translate(-6.886 -6.88)" fill="#fff"/></svg>