<svg xmlns="http://www.w3.org/2000/svg" xmlns:xlink="http://www.w3.org/1999/xlink" width="31" height="31" viewBox="0 0 31 31"><defs><clipPath id="a"><rect width="31" height="31" transform="translate(631 871)"/></clipPath></defs><g transform="translate(-631 -871)" clip-path="url(#a)"><path d="M640.071,872c-1.3,0-2.288,0-3.119.056a9,9,0,0,0-2.209.387,5.513,5.513,0,0,0-3.3,3.3,9.025,9.025,0,0,0-.388,2.217c-.054.832-.054,1.815-.054,3.115v12.662c0,1.32,0,2.307.054,3.138a8.993,8.993,0,0,0,.388,2.213,5.528,5.528,0,0,0,3.3,3.31,8.91,8.91,0,0,0,2.214.383c.832.054,1.814.052,3.114.052H649.1c-.314-2-.562-4-.734-6.014,0-.051-.006-.1-.01-.155a14.03,14.03,0,0,1-1.508.073,13.806,13.806,0,0,1-9.888-4.319.371.371,0,0,1,.127-.405.38.38,0,0,1,.521.046,12.974,12.974,0,0,0,9.284,3.932,12.753,12.753,0,0,0,1.415-.082c-.14-1.9-.23-3.8-.244-5.705l-5.054-.481q.486-4.729,1.264-9.423c.46-2.782,1.008-5.549,1.619-8.3h-5.82Zm6.136,0c-.625,2.777-1.182,5.569-1.646,8.378q-.747,4.529-1.211,9.1l5.057.455q0,1.531.058,3.061.054,1.449.147,2.9a12.938,12.938,0,0,0,7.831-3.9.427.427,0,0,1,.551.048.417.417,0,0,1,.064.5,13.771,13.771,0,0,1-8.4,4.107c.007.082.01.165.017.246.17,1.994.444,3.973.8,5.941h3.252c1.321,0,2.311,0,3.146-.052a8.91,8.91,0,0,0,2.219-.383,5.537,5.537,0,0,0,3.306-3.31,9,9,0,0,0,.388-2.2c.054-.827.054-1.8.054-3.1V881.12c0-1.319,0-2.313-.054-3.151a9.046,9.046,0,0,0-.388-2.223,5.521,5.521,0,0,0-3.306-3.3,9.02,9.02,0,0,0-2.211-.388c-.831-.054-1.81-.054-3.111-.054Zm-6.788,8.362a.588.588,0,0,1,.585.586v2.381a.585.585,0,1,1-1.171,0v-2.381A.587.587,0,0,1,639.419,880.362Zm14.975,0a.586.586,0,0,1,.582.586v2.381a.584.584,0,1,1-1.168,0v-2.381A.587.587,0,0,1,654.393,880.362Z" transform="translate(0 -0.837)" fill-rule="evenodd"/></g></svg>