<svg xmlns="http://www.w3.org/2000/svg" width="40" height="40.001" viewBox="0 0 40 40.001"><path d="M40,40H0V0H40V40ZM10.683,17.62h-.027a2.6,2.6,0,0,0-2.2,1.338c-.9,1.557-.329,3.929.67,5.37.466.685.977,1.354,1.652,1.354h.039a2.033,2.033,0,0,0,.764-.2,2.282,2.282,0,0,1,.981-.23,2.152,2.152,0,0,1,.936.223,1.847,1.847,0,0,0,.79.2h.032c.757-.013,1.226-.7,1.639-1.313a5.826,5.826,0,0,0,.735-1.51,2.386,2.386,0,0,1-1.431-2.166,2.413,2.413,0,0,1,1.134-2.021l.021-.014a2.528,2.528,0,0,0-1.955-1.062c-.036,0-.077,0-.117,0a3.544,3.544,0,0,0-1.293.318,2.028,2.028,0,0,1-.633.185,2.015,2.015,0,0,1-.657-.187,2.974,2.974,0,0,0-1.075-.273Zm19.16,1.527h.034v6.379h1.446V17.747H29.864l-2.071,1.419v1.372l2.049-1.391Zm-4.6.977h.047v5.4h1.318V17.747H24.9l-2.4,5.716h-.041l-2.4-5.716h-1.7v7.779h1.322v-5.4h.041l2.268,5.335h.984l2.267-5.335ZM14.468,15a2.364,2.364,0,0,0-1.58.817,2.259,2.259,0,0,0-.565,1.645c.038,0,.076.005.12.005a2.038,2.038,0,0,0,1.472-.756A2.391,2.391,0,0,0,14.468,15Z"/></svg>