<svg xmlns="http://www.w3.org/2000/svg" width="50.37" height="34" viewBox="0 0 50.37 34"><rect width="50.37" height="34" transform="translate(0)" fill="none"/><path d="M13.154,31.093h3.914l.494,2.278a1.769,1.769,0,0,0,1.843,1.377l.043,0a.217.217,0,0,1,.218.217.214.214,0,0,1-.153.2.077.077,0,0,1-.026.01v0H10.737v0a.1.1,0,0,1-.027-.01.215.215,0,0,1,.065-.421l.044,0a1.768,1.768,0,0,0,1.843-1.377Zm9.512-1.259a1.559,1.559,0,0,0,.323.944H.99A1.14,1.14,0,0,1,0,29.814V10.964A1.112,1.112,0,0,1,.964,10H29.258a1.112,1.112,0,0,1,.964.964v.925H28.963v-.63H1.259V27H22.667Zm-7.559-1.382v.023c0,.006.009.009.024.009a.219.219,0,0,0,.108-.029.325.325,0,0,0,.1-.077.378.378,0,0,0,.067-.109.329.329,0,0,0,.026-.123v-.017a.051.051,0,0,0,0-.016.289.289,0,0,0-.12.033.38.38,0,0,0-.1.079.413.413,0,0,0-.07.109A.3.3,0,0,0,15.108,28.452Zm.647.84a.343.343,0,0,1-.156-.133.348.348,0,0,1-.056-.193.375.375,0,0,1,.04-.176.347.347,0,0,1,.131-.129.35.35,0,0,0-.132-.117A.369.369,0,0,0,15.4,28.5a.311.311,0,0,0-.068.008.889.889,0,0,0-.087.026l-.087.031a.132.132,0,0,1-.04.011.354.354,0,0,1-.115-.036.394.394,0,0,0-.146-.035.347.347,0,0,0-.155.035.382.382,0,0,0-.124.1.483.483,0,0,0-.085.152.584.584,0,0,0-.03.192.828.828,0,0,0,.013.138,1.037,1.037,0,0,0,.033.14,1.1,1.1,0,0,0,.053.136.989.989,0,0,0,.068.119,1.047,1.047,0,0,0,.073.1.416.416,0,0,0,.061.063.229.229,0,0,0,.057.034.164.164,0,0,0,.056.01.2.2,0,0,0,.052-.01L15,29.688l.074-.022a.225.225,0,0,1,.068-.011.263.263,0,0,1,.065.009l.071.022.069.022a.205.205,0,0,0,.057.01.142.142,0,0,0,.07-.017.355.355,0,0,0,.067-.046c.011-.012.027-.029.048-.053s.039-.053.06-.086.039-.067.058-.1a.965.965,0,0,0,.048-.119ZM50.37,13.463v16.37a.944.944,0,0,1-.944.944H24.241a.944.944,0,0,1-.944-.944V13.463a.944.944,0,0,1,.944-.944H49.426A.944.944,0,0,1,50.37,13.463Zm-.63-.315H23.926V27.63H49.741ZM33.37,35.185H40.3V31.093H33.37Z" transform="translate(0 -3.704)"/></svg>