<svg xmlns="http://www.w3.org/2000/svg" xmlns:xlink="http://www.w3.org/1999/xlink" width="33" height="33" viewBox="0 0 33 33"><defs><clipPath id="a"><rect width="33" height="33" transform="translate(999.856 871.069)"/></clipPath></defs><g transform="translate(-999.856 -871.069)" clip-path="url(#a)"><path d="M1017.458,872a16.461,16.461,0,1,0,11.64,4.82A16.417,16.417,0,0,0,1017.458,872Zm1.091,8.329c.047,0,.1,0,.143.006a1.33,1.33,0,0,1,.906.385.923.923,0,0,1,.249.609v2.4h-.529l-.007-.561a1.161,1.161,0,0,1-.488.484,1.318,1.318,0,0,1-.639.139,1.131,1.131,0,0,1-.892-.4,1,1,0,0,1-.188-.545.934.934,0,0,1,.139-.572.88.88,0,0,1,.361-.31,1.624,1.624,0,0,1,.472-.146c.1-.014.2-.022.3-.03s.2-.014.3-.019c.2-.011.409-.018.62-.022l-.016-.484a.579.579,0,0,0-.233-.32.9.9,0,0,0-.51-.12.843.843,0,0,0-.585.193.527.527,0,0,0-.146.251l-.55,0a1.054,1.054,0,0,1,.357-.636A1.424,1.424,0,0,1,1018.548,880.329Zm-5.63,0a1.067,1.067,0,0,1,.652.157.956.956,0,0,1,.387.486l.035,0a1.126,1.126,0,0,1,.449-.478,1.219,1.219,0,0,1,.652-.158,1.169,1.169,0,0,1,.6.177,1.017,1.017,0,0,1,.46.822l.005,2.462-.57,0v-2.185a1.119,1.119,0,0,0-.051-.336.64.64,0,0,0-.153-.269.707.707,0,0,0-.544-.158.934.934,0,0,0-.289.062.648.648,0,0,0-.23.155.754.754,0,0,0-.221.545l0,2.179-.577,0,0-2.169c0-.053,0-.1-.005-.154a1,1,0,0,0-.017-.145.549.549,0,0,0-.122-.254.677.677,0,0,0-.432-.213.84.84,0,0,0-.347.025.779.779,0,0,0-.277.161.814.814,0,0,0-.274.587l0,2.166h-.58v-3.408l.543,0,.009.56h.03a.971.971,0,0,1,.326-.417A1.044,1.044,0,0,1,1012.918,880.332Zm9.419.006a1.474,1.474,0,0,1,.935.312,1.187,1.187,0,0,1,.432.8h-.557a.759.759,0,0,0-.2-.353.9.9,0,0,0-1.361.12,1.252,1.252,0,0,0-.227.689,2.009,2.009,0,0,0,.031.51,1.134,1.134,0,0,0,.211.5.908.908,0,0,0,.563.333.834.834,0,0,0,.706-.158.768.768,0,0,0,.279-.432l.561,0a1.219,1.219,0,0,1-.418.782,1.463,1.463,0,0,1-.995.337,1.519,1.519,0,0,1-1.139-.5,1.766,1.766,0,0,1-.385-1.167,2.444,2.444,0,0,1,.094-.7,1.422,1.422,0,0,1,1.472-1.062Zm-3.042,1.856-.937.053a.989.989,0,0,0-.376.1.571.571,0,0,0-.18.12.5.5,0,0,0-.106.2.418.418,0,0,0-.019.131c.005.361.406.56.8.505a.981.981,0,0,0,.646-.347.8.8,0,0,0,.171-.4Zm-6.273,4.027a4.616,4.616,0,0,1,3.446,1.576,5.734,5.734,0,0,1-.012,7.54,4.551,4.551,0,0,1-6.9-.023,5.737,5.737,0,0,1,.021-7.506A4.648,4.648,0,0,1,1013.023,886.221Zm9.748,0c.134,0,.267,0,.4,0a4.038,4.038,0,0,1,2.259.708,2.959,2.959,0,0,1,1.184,2.206l-1.341,0a1.848,1.848,0,0,0-.876-1.359,2.508,2.508,0,0,0-1.047-.329,3.565,3.565,0,0,0-1.054.04,2.213,2.213,0,0,0-1.139.551,1.379,1.379,0,0,0-.409,1.293,1.229,1.229,0,0,0,.359.641,3.38,3.38,0,0,0,1.622.7c.411.1.826.2,1.233.321a8.694,8.694,0,0,1,1.212.43,2.824,2.824,0,0,1,1.127.86,2.445,2.445,0,0,1,.446,1.519,2.961,2.961,0,0,1-1.118,2.327,3.581,3.581,0,0,1-1.42.638,5.731,5.731,0,0,1-1.751.113,4.131,4.131,0,0,1-2.35-.869,2.91,2.91,0,0,1-1.028-2.114l1.343.008a1.9,1.9,0,0,0,.51,1.056,2.8,2.8,0,0,0,2.043.737,2.847,2.847,0,0,0,1.8-.55,1.475,1.475,0,0,0,.568-1.485c-.174-.79-.99-1.18-1.789-1.4-.65-.181-1.334-.315-1.977-.508a3.407,3.407,0,0,1-1.484-.787,2.666,2.666,0,0,1,.127-3.8A3.711,3.711,0,0,1,1022.771,886.225Zm-9.752,1.522a2.9,2.9,0,0,0-2.242,1.129,4.417,4.417,0,0,0-.005,5.381,2.819,2.819,0,0,0,4.459.016,4.417,4.417,0,0,0,.017-5.415A2.864,2.864,0,0,0,1013.019,887.747Z" transform="translate(-0.857 -0.855)" fill-rule="evenodd"/></g></svg>