<svg xmlns="http://www.w3.org/2000/svg" width="26.257" height="37.3" viewBox="0 0 26.257 37.3"><g transform="translate(0.006)"><path d="M0,0H26.248V37.3H0Z" transform="translate(-0.002)" fill="none"/><path d="M26.246,5.3a6.38,6.38,0,0,0-.1-1.339,2.441,2.441,0,0,0-.6-1.178,2.345,2.345,0,0,0-1.13-.663A5.182,5.182,0,0,0,23.105,2H13.65c-.16,0-.328,0-.471,0a5.144,5.144,0,0,0-.708.059,2.736,2.736,0,0,0-.647.185,2.307,2.307,0,0,0-.628.4,2.388,2.388,0,0,0-.718,1.218,4.258,4.258,0,0,0-.109.895c0,.115-.007.231-.007.346,0,.178,0,.355,0,.533v26.21a6.366,6.366,0,0,0,.1,1.339,2.441,2.441,0,0,0,.6,1.178c.033.035.07.064.1.1a2.274,2.274,0,0,0,.473.345,2.482,2.482,0,0,0,.553.222,3.639,3.639,0,0,0,.7.106c.205.013.411.017.616.017H23a5.891,5.891,0,0,0,1.344-.1,2.369,2.369,0,0,0,1.172-.643,2.43,2.43,0,0,0,.632-1.19,6.191,6.191,0,0,0,.1-1.366V5.3ZM16.6,3a.278.278,0,0,1-.251.275.285.285,0,0,1-.265-.137.289.289,0,0,1,0-.276.285.285,0,0,1,.265-.137A.278.278,0,0,1,16.6,3Zm.53-.6a.092.092,0,0,1,.092-.092h2.131a.092.092,0,0,1,.092.092v.014a.092.092,0,0,1-.092.092h-2.13a.092.092,0,0,1-.092-.092Zm8.427,3.182V31.866a5.552,5.552,0,0,1-.085,1.2,1.732,1.732,0,0,1-.451.859,1.672,1.672,0,0,1-.837.455A5.323,5.323,0,0,1,23,34.464H13.5c-.23,0-.437-.006-.632-.021a2.837,2.837,0,0,1-.509-.079,1.663,1.663,0,0,1-.8-.468,1.748,1.748,0,0,1-.43-.852,5.784,5.784,0,0,1-.08-1.193V5.641c0-.176,0-.358,0-.533,0-.117,0-.233.007-.346a3.552,3.552,0,0,1,.087-.726,1.705,1.705,0,0,1,.51-.873,1.616,1.616,0,0,1,.441-.282,2.043,2.043,0,0,1,.485-.138,4.4,4.4,0,0,1,.613-.05c.127,0,.274,0,.416,0h1.54a.645.645,0,0,1,.125.007.2.2,0,0,1,.109.053.175.175,0,0,1,.055.108c.008.05.014.215.031.312a.807.807,0,0,0,.093.261.84.84,0,0,0,.307.309.853.853,0,0,0,.323.106,2.592,2.592,0,0,0,.345.011h3.524a2.592,2.592,0,0,0,.345-.011.853.853,0,0,0,.323-.106.84.84,0,0,0,.307-.309.807.807,0,0,0,.093-.261,2.442,2.442,0,0,0,.022-.28.176.176,0,0,1,.065-.14.2.2,0,0,1,.108-.053.645.645,0,0,1,.125-.006H23.1a4.543,4.543,0,0,1,1.141.1,1.663,1.663,0,0,1,.8.468,1.747,1.747,0,0,1,.429.852,5.787,5.787,0,0,1,.08,1.193Zm-15,29.256c-.009-.01-.016-.021-.025-.031a2.985,2.985,0,0,1-.27-.345H2.869a4.071,4.071,0,0,1-1.026-.09,1.457,1.457,0,0,1-.7-.413A1.554,1.554,0,0,1,.761,33.2a5.3,5.3,0,0,1-.072-1.083V7.785a4.826,4.826,0,0,1,.087-1.14,1.513,1.513,0,0,1,.449-.774,1.416,1.416,0,0,1,.386-.248A1.8,1.8,0,0,1,2.039,5.5a3.924,3.924,0,0,1,.551-.045c.126,0,.273,0,.413,0H4.569a.591.591,0,0,1,.114.006.173.173,0,0,1,.15.146.62.62,0,0,1,.009.114,1.688,1.688,0,0,0,.02.256.738.738,0,0,0,.085.238.767.767,0,0,0,.28.282.779.779,0,0,0,.3.1,2.36,2.36,0,0,0,.315.01H9.357a2.394,2.394,0,0,0,.312-.01v-.95c0-.176,0-.356,0-.533,0-.113,0-.228.007-.345H3c-.146,0-.3,0-.431,0a4.665,4.665,0,0,0-.647.054,2.484,2.484,0,0,0-.591.17,2.1,2.1,0,0,0-.573.369A2.194,2.194,0,0,0,.106,6.477,5.446,5.446,0,0,0,0,7.8V32.121a5.888,5.888,0,0,0,.087,1.229,2.246,2.246,0,0,0,.548,1.082,2.139,2.139,0,0,0,1.031.609,4.705,4.705,0,0,0,1.2.113H10.9a2.985,2.985,0,0,1-.349-.314ZM6.45,5.115a.09.09,0,0,1,.09-.09H8.653a.09.09,0,0,1,.09.09v.014a.09.09,0,0,1-.09.09H6.54a.09.09,0,0,1-.09-.09ZM5.365,5.69a.292.292,0,0,1,.272-.141.284.284,0,0,1,0,.566.293.293,0,0,1-.272-.141A.3.3,0,0,1,5.365,5.69Z" transform="translate(0 -0.617)"/></g></svg>