<svg xmlns="http://www.w3.org/2000/svg" width="32" height="32" viewBox="0 0 32 32"><path d="M0,1H32V33H0Z" transform="translate(0 -1)" fill="none" fill-rule="evenodd"/><path d="M20.87,17.908l6.789,6.787a3.2,3.2,0,1,1-4.525,4.526l-6.789-6.789ZM24.79,2.674l-3.92,3.92L22,9.986l3.4,1.133L29.316,7.2a6.4,6.4,0,0,1-7.837,7.838L8.427,28.09A3.2,3.2,0,0,1,3.9,23.564l13.05-13.05a6.4,6.4,0,0,1,7.84-7.84ZM4.668,25.722a1.6,1.6,0,1,0,1.6-1.6A1.6,1.6,0,0,0,4.668,25.722ZM3.441,2.927,8.425,5.461,9.118,8.6l3.739,3.739L10.78,14.42,7.043,10.68,3.9,9.988,1.366,5Z" transform="translate(0.82 -0.127)" fill="#fff" fill-rule="evenodd"/></svg>